G04 MADE WITH FRITZING*
G04 WWW.FRITZING.ORG*
G04 DOUBLE SIDED*
G04 HOLES PLATED*
G04 CONTOUR ON CENTER OF CONTOUR VECTOR*
%ASAXBY*%
%FSLAX23Y23*%
%MOIN*%
%OFA0B0*%
%SFA1.0B1.0*%
%ADD10C,0.039370*%
%ADD11C,0.079370*%
%ADD12C,0.099055*%
%ADD13C,0.078000*%
%ADD14C,0.074000*%
%ADD15R,0.055118X0.059055*%
%ADD16R,0.059055X0.055118*%
%ADD17R,0.050000X0.057874*%
%ADD18C,0.024000*%
%ADD19R,0.001000X0.001000*%
%LNCOPPER0*%
G90*
G70*
G54D10*
X746Y1833D03*
X971Y1708D03*
G54D11*
X946Y1908D03*
G54D12*
X396Y133D03*
X396Y1633D03*
G54D10*
X1621Y1383D03*
G54D13*
X1671Y458D03*
X1671Y558D03*
X1671Y658D03*
X1671Y758D03*
X1671Y858D03*
X1671Y958D03*
X1671Y1058D03*
X1671Y1158D03*
X1671Y1258D03*
X1671Y458D03*
X1671Y558D03*
X1671Y658D03*
X1671Y758D03*
X1671Y858D03*
X1671Y958D03*
X1671Y1058D03*
X1671Y1158D03*
X1671Y1258D03*
X1121Y58D03*
X1221Y58D03*
X1321Y58D03*
X1421Y58D03*
X1521Y58D03*
X1621Y58D03*
X1896Y1358D03*
X1896Y1258D03*
X1896Y1158D03*
X1896Y1808D03*
X1896Y1708D03*
X1896Y1608D03*
X1896Y1508D03*
X1184Y604D03*
X1184Y504D03*
X1184Y604D03*
X1184Y504D03*
X894Y283D03*
X894Y383D03*
X894Y483D03*
X894Y583D03*
G54D10*
X1196Y1783D03*
X1596Y1858D03*
G54D13*
X1071Y1258D03*
X1071Y1158D03*
X1071Y1058D03*
X1071Y958D03*
X1071Y858D03*
X1071Y758D03*
X1171Y1258D03*
X1271Y1258D03*
X1371Y1258D03*
X1071Y458D03*
X1071Y358D03*
X1071Y258D03*
X1071Y158D03*
X894Y1333D03*
X894Y1433D03*
X894Y1533D03*
X894Y1633D03*
G54D10*
X546Y1333D03*
X646Y383D03*
G54D13*
X1896Y708D03*
X1796Y708D03*
X1896Y708D03*
X1796Y708D03*
X1896Y608D03*
X1796Y608D03*
X1896Y608D03*
X1796Y608D03*
X1796Y458D03*
X1896Y458D03*
X1796Y458D03*
X1896Y458D03*
X1896Y108D03*
X1896Y208D03*
X1896Y308D03*
G54D14*
X821Y108D03*
X821Y108D03*
X821Y108D03*
X521Y108D03*
X521Y108D03*
X521Y108D03*
X621Y108D03*
X621Y108D03*
X621Y108D03*
X721Y108D03*
X721Y108D03*
X721Y108D03*
G54D10*
X1770Y1432D03*
G54D13*
X721Y1133D03*
X721Y1133D03*
X721Y283D03*
X721Y283D03*
X121Y1133D03*
X121Y1133D03*
X121Y283D03*
X121Y283D03*
G54D10*
X547Y383D03*
G54D14*
X921Y108D03*
X921Y108D03*
X921Y108D03*
G54D13*
X1896Y1058D03*
X1896Y958D03*
X1896Y858D03*
G54D10*
X996Y1558D03*
X1371Y358D03*
G54D13*
X894Y808D03*
X894Y908D03*
X894Y1008D03*
X894Y1108D03*
G54D10*
X996Y608D03*
X646Y207D03*
X719Y1433D03*
X546Y1058D03*
X545Y582D03*
X647Y809D03*
X795Y907D03*
X546Y908D03*
G54D15*
X1496Y858D03*
X1415Y858D03*
G54D16*
X1796Y1183D03*
X1796Y1264D03*
G54D15*
X1346Y658D03*
X1426Y658D03*
G54D16*
X1546Y283D03*
X1546Y203D03*
G54D15*
X1496Y758D03*
X1415Y758D03*
X621Y908D03*
X701Y908D03*
G54D16*
X721Y658D03*
X721Y739D03*
G54D17*
X296Y1358D03*
X126Y1358D03*
G54D18*
X396Y283D02*
X396Y1010D01*
D02*
X396Y283D02*
X396Y174D01*
D02*
X1866Y1514D02*
X1746Y1535D01*
D02*
X1746Y1535D02*
X1419Y1532D01*
D02*
X1419Y1532D02*
X1208Y1769D01*
D02*
X1772Y1244D02*
X1694Y1178D01*
D02*
X1547Y1259D02*
X1171Y1058D01*
D02*
X1611Y1367D02*
X1547Y1259D01*
D02*
X1171Y1058D02*
X1101Y1058D01*
D02*
X1071Y684D02*
X897Y684D01*
D02*
X897Y684D02*
X895Y613D01*
D02*
X1071Y489D02*
X1071Y684D01*
D02*
X1820Y1177D02*
X1867Y1166D01*
D02*
X565Y1333D02*
X864Y1333D01*
D02*
X396Y283D02*
X394Y484D01*
D02*
X394Y484D02*
X864Y483D01*
D02*
X665Y383D02*
X864Y383D01*
D02*
X1042Y149D02*
X952Y119D01*
D02*
X1699Y747D02*
X1768Y720D01*
D02*
X1699Y647D02*
X1768Y620D01*
D02*
X1645Y773D02*
X1518Y846D01*
D02*
X1645Y673D02*
X1518Y746D01*
D02*
X1870Y1374D02*
X1786Y1423D01*
D02*
X396Y283D02*
X691Y283D01*
D02*
X121Y1164D02*
X126Y1335D01*
D02*
X295Y32D02*
X296Y1335D01*
D02*
X420Y32D02*
X295Y32D01*
D02*
X494Y88D02*
X420Y32D01*
D02*
X864Y1433D02*
X738Y1433D01*
D02*
X1866Y858D02*
X1701Y858D01*
D02*
X1866Y958D02*
X1701Y958D01*
D02*
X1866Y1058D02*
X1701Y1058D01*
D02*
X569Y207D02*
X394Y207D01*
D02*
X394Y207D02*
X395Y174D01*
D02*
X605Y138D02*
X569Y207D01*
D02*
X688Y108D02*
X654Y108D01*
D02*
X1415Y834D02*
X1415Y782D01*
D02*
X1418Y734D02*
X1424Y682D01*
D02*
X1420Y532D02*
X1642Y467D01*
D02*
X1425Y634D02*
X1420Y532D01*
D02*
X1346Y858D02*
X1346Y682D01*
D02*
X1101Y858D02*
X1346Y858D01*
D02*
X1571Y358D02*
X1671Y358D01*
D02*
X1671Y358D02*
X1772Y439D01*
D02*
X1346Y484D02*
X1571Y358D01*
D02*
X1346Y634D02*
X1346Y484D01*
D02*
X995Y1157D02*
X1041Y1158D01*
D02*
X996Y1539D02*
X995Y1157D01*
D02*
X1570Y285D02*
X1866Y306D01*
D02*
X1272Y309D02*
X1271Y760D01*
D02*
X1271Y760D02*
X1101Y759D01*
D02*
X1272Y309D02*
X1522Y212D01*
D02*
X1522Y294D02*
X1388Y351D01*
D02*
X1866Y208D02*
X1570Y203D01*
D02*
X595Y1709D02*
X394Y1433D01*
D02*
X995Y382D02*
X996Y589D01*
D02*
X924Y383D02*
X995Y382D01*
D02*
X665Y207D02*
X821Y207D01*
D02*
X821Y207D02*
X821Y142D01*
D02*
X564Y583D02*
X720Y583D01*
D02*
X720Y583D02*
X864Y583D01*
D02*
X396Y1010D02*
X394Y1433D01*
D02*
X666Y809D02*
X864Y808D01*
D02*
X565Y1058D02*
X795Y1058D01*
D02*
X795Y1058D02*
X867Y1095D01*
D02*
X396Y1010D02*
X864Y1008D01*
D02*
X952Y1708D02*
X595Y1709D01*
D02*
X700Y1433D02*
X394Y1433D01*
D02*
X720Y583D02*
X720Y636D01*
D02*
X720Y808D02*
X720Y761D01*
D02*
X666Y809D02*
X720Y808D01*
D02*
X776Y908D02*
X723Y908D01*
D02*
X565Y908D02*
X599Y908D01*
G54D19*
X513Y146D02*
X527Y146D01*
X613Y146D02*
X627Y146D01*
X713Y146D02*
X727Y146D01*
X813Y146D02*
X827Y146D01*
X913Y146D02*
X927Y146D01*
X509Y145D02*
X531Y145D01*
X609Y145D02*
X631Y145D01*
X709Y145D02*
X731Y145D01*
X809Y145D02*
X831Y145D01*
X909Y145D02*
X931Y145D01*
X506Y144D02*
X534Y144D01*
X606Y144D02*
X634Y144D01*
X706Y144D02*
X734Y144D01*
X806Y144D02*
X834Y144D01*
X906Y144D02*
X934Y144D01*
X504Y143D02*
X536Y143D01*
X604Y143D02*
X636Y143D01*
X704Y143D02*
X736Y143D01*
X804Y143D02*
X836Y143D01*
X904Y143D02*
X936Y143D01*
X502Y142D02*
X538Y142D01*
X602Y142D02*
X638Y142D01*
X702Y142D02*
X738Y142D01*
X802Y142D02*
X838Y142D01*
X902Y142D02*
X938Y142D01*
X501Y141D02*
X540Y141D01*
X601Y141D02*
X640Y141D01*
X701Y141D02*
X739Y141D01*
X801Y141D02*
X839Y141D01*
X901Y141D02*
X939Y141D01*
X499Y140D02*
X541Y140D01*
X599Y140D02*
X641Y140D01*
X699Y140D02*
X741Y140D01*
X799Y140D02*
X841Y140D01*
X899Y140D02*
X941Y140D01*
X498Y139D02*
X542Y139D01*
X598Y139D02*
X642Y139D01*
X698Y139D02*
X742Y139D01*
X798Y139D02*
X842Y139D01*
X898Y139D02*
X942Y139D01*
X497Y138D02*
X544Y138D01*
X597Y138D02*
X644Y138D01*
X697Y138D02*
X744Y138D01*
X797Y138D02*
X844Y138D01*
X897Y138D02*
X943Y138D01*
X496Y137D02*
X545Y137D01*
X595Y137D02*
X645Y137D01*
X695Y137D02*
X745Y137D01*
X795Y137D02*
X845Y137D01*
X895Y137D02*
X945Y137D01*
X494Y136D02*
X546Y136D01*
X594Y136D02*
X646Y136D01*
X694Y136D02*
X746Y136D01*
X794Y136D02*
X846Y136D01*
X894Y136D02*
X946Y136D01*
X494Y135D02*
X547Y135D01*
X593Y135D02*
X647Y135D01*
X693Y135D02*
X747Y135D01*
X793Y135D02*
X847Y135D01*
X893Y135D02*
X947Y135D01*
X493Y134D02*
X548Y134D01*
X593Y134D02*
X648Y134D01*
X693Y134D02*
X748Y134D01*
X793Y134D02*
X848Y134D01*
X892Y134D02*
X948Y134D01*
X492Y133D02*
X548Y133D01*
X592Y133D02*
X648Y133D01*
X692Y133D02*
X748Y133D01*
X792Y133D02*
X848Y133D01*
X892Y133D02*
X948Y133D01*
X491Y132D02*
X549Y132D01*
X591Y132D02*
X649Y132D01*
X691Y132D02*
X749Y132D01*
X791Y132D02*
X849Y132D01*
X891Y132D02*
X949Y132D01*
X490Y131D02*
X514Y131D01*
X526Y131D02*
X550Y131D01*
X590Y131D02*
X614Y131D01*
X626Y131D02*
X650Y131D01*
X690Y131D02*
X714Y131D01*
X726Y131D02*
X750Y131D01*
X790Y131D02*
X814Y131D01*
X826Y131D02*
X850Y131D01*
X890Y131D02*
X914Y131D01*
X926Y131D02*
X950Y131D01*
X490Y130D02*
X511Y130D01*
X529Y130D02*
X551Y130D01*
X590Y130D02*
X611Y130D01*
X629Y130D02*
X651Y130D01*
X690Y130D02*
X711Y130D01*
X729Y130D02*
X751Y130D01*
X790Y130D02*
X811Y130D01*
X829Y130D02*
X851Y130D01*
X889Y130D02*
X911Y130D01*
X929Y130D02*
X951Y130D01*
X489Y129D02*
X509Y129D01*
X531Y129D02*
X551Y129D01*
X589Y129D02*
X609Y129D01*
X631Y129D02*
X651Y129D01*
X689Y129D02*
X709Y129D01*
X731Y129D02*
X751Y129D01*
X789Y129D02*
X809Y129D01*
X831Y129D02*
X851Y129D01*
X889Y129D02*
X909Y129D01*
X931Y129D02*
X951Y129D01*
X488Y128D02*
X507Y128D01*
X533Y128D02*
X552Y128D01*
X588Y128D02*
X607Y128D01*
X633Y128D02*
X652Y128D01*
X688Y128D02*
X707Y128D01*
X733Y128D02*
X752Y128D01*
X788Y128D02*
X807Y128D01*
X833Y128D02*
X852Y128D01*
X888Y128D02*
X907Y128D01*
X933Y128D02*
X952Y128D01*
X488Y127D02*
X506Y127D01*
X534Y127D02*
X552Y127D01*
X588Y127D02*
X606Y127D01*
X634Y127D02*
X652Y127D01*
X688Y127D02*
X706Y127D01*
X734Y127D02*
X752Y127D01*
X788Y127D02*
X806Y127D01*
X834Y127D02*
X852Y127D01*
X888Y127D02*
X906Y127D01*
X934Y127D02*
X952Y127D01*
X487Y126D02*
X505Y126D01*
X535Y126D02*
X553Y126D01*
X587Y126D02*
X605Y126D01*
X635Y126D02*
X653Y126D01*
X687Y126D02*
X705Y126D01*
X735Y126D02*
X753Y126D01*
X787Y126D02*
X805Y126D01*
X835Y126D02*
X853Y126D01*
X887Y126D02*
X905Y126D01*
X935Y126D02*
X953Y126D01*
X487Y125D02*
X504Y125D01*
X537Y125D02*
X553Y125D01*
X587Y125D02*
X604Y125D01*
X636Y125D02*
X653Y125D01*
X687Y125D02*
X704Y125D01*
X736Y125D02*
X753Y125D01*
X787Y125D02*
X804Y125D01*
X836Y125D02*
X853Y125D01*
X887Y125D02*
X904Y125D01*
X936Y125D02*
X953Y125D01*
X486Y124D02*
X503Y124D01*
X537Y124D02*
X554Y124D01*
X586Y124D02*
X603Y124D01*
X637Y124D02*
X654Y124D01*
X686Y124D02*
X703Y124D01*
X737Y124D02*
X754Y124D01*
X786Y124D02*
X803Y124D01*
X837Y124D02*
X854Y124D01*
X886Y124D02*
X903Y124D01*
X937Y124D02*
X954Y124D01*
X486Y123D02*
X502Y123D01*
X538Y123D02*
X554Y123D01*
X586Y123D02*
X602Y123D01*
X638Y123D02*
X654Y123D01*
X686Y123D02*
X702Y123D01*
X738Y123D02*
X754Y123D01*
X786Y123D02*
X802Y123D01*
X838Y123D02*
X854Y123D01*
X886Y123D02*
X902Y123D01*
X938Y123D02*
X954Y123D01*
X486Y122D02*
X501Y122D01*
X539Y122D02*
X555Y122D01*
X586Y122D02*
X601Y122D01*
X639Y122D02*
X654Y122D01*
X686Y122D02*
X701Y122D01*
X739Y122D02*
X754Y122D01*
X786Y122D02*
X801Y122D01*
X839Y122D02*
X854Y122D01*
X886Y122D02*
X901Y122D01*
X939Y122D02*
X954Y122D01*
X485Y121D02*
X501Y121D01*
X539Y121D02*
X555Y121D01*
X585Y121D02*
X601Y121D01*
X639Y121D02*
X655Y121D01*
X685Y121D02*
X701Y121D01*
X739Y121D02*
X755Y121D01*
X785Y121D02*
X801Y121D01*
X839Y121D02*
X855Y121D01*
X885Y121D02*
X901Y121D01*
X939Y121D02*
X955Y121D01*
X485Y120D02*
X500Y120D01*
X540Y120D02*
X555Y120D01*
X585Y120D02*
X600Y120D01*
X640Y120D02*
X655Y120D01*
X685Y120D02*
X700Y120D01*
X740Y120D02*
X755Y120D01*
X785Y120D02*
X800Y120D01*
X840Y120D02*
X855Y120D01*
X885Y120D02*
X900Y120D01*
X940Y120D02*
X955Y120D01*
X485Y119D02*
X500Y119D01*
X541Y119D02*
X555Y119D01*
X585Y119D02*
X600Y119D01*
X641Y119D02*
X655Y119D01*
X685Y119D02*
X700Y119D01*
X741Y119D02*
X755Y119D01*
X785Y119D02*
X800Y119D01*
X840Y119D02*
X855Y119D01*
X885Y119D02*
X900Y119D01*
X940Y119D02*
X955Y119D01*
X485Y118D02*
X499Y118D01*
X541Y118D02*
X556Y118D01*
X585Y118D02*
X599Y118D01*
X641Y118D02*
X656Y118D01*
X684Y118D02*
X699Y118D01*
X741Y118D02*
X756Y118D01*
X784Y118D02*
X799Y118D01*
X841Y118D02*
X856Y118D01*
X884Y118D02*
X899Y118D01*
X941Y118D02*
X956Y118D01*
X484Y117D02*
X499Y117D01*
X541Y117D02*
X556Y117D01*
X584Y117D02*
X599Y117D01*
X641Y117D02*
X656Y117D01*
X684Y117D02*
X699Y117D01*
X741Y117D02*
X756Y117D01*
X784Y117D02*
X799Y117D01*
X841Y117D02*
X856Y117D01*
X884Y117D02*
X899Y117D01*
X941Y117D02*
X956Y117D01*
X484Y116D02*
X499Y116D01*
X542Y116D02*
X556Y116D01*
X584Y116D02*
X599Y116D01*
X642Y116D02*
X656Y116D01*
X684Y116D02*
X699Y116D01*
X742Y116D02*
X756Y116D01*
X784Y116D02*
X799Y116D01*
X842Y116D02*
X856Y116D01*
X884Y116D02*
X898Y116D01*
X942Y116D02*
X956Y116D01*
X484Y115D02*
X498Y115D01*
X542Y115D02*
X556Y115D01*
X584Y115D02*
X598Y115D01*
X642Y115D02*
X656Y115D01*
X684Y115D02*
X698Y115D01*
X742Y115D02*
X756Y115D01*
X784Y115D02*
X798Y115D01*
X842Y115D02*
X856Y115D01*
X884Y115D02*
X898Y115D01*
X942Y115D02*
X956Y115D01*
X484Y114D02*
X498Y114D01*
X542Y114D02*
X556Y114D01*
X584Y114D02*
X598Y114D01*
X642Y114D02*
X656Y114D01*
X684Y114D02*
X698Y114D01*
X742Y114D02*
X756Y114D01*
X784Y114D02*
X798Y114D01*
X842Y114D02*
X856Y114D01*
X884Y114D02*
X898Y114D01*
X942Y114D02*
X956Y114D01*
X484Y113D02*
X498Y113D01*
X542Y113D02*
X556Y113D01*
X584Y113D02*
X598Y113D01*
X642Y113D02*
X656Y113D01*
X684Y113D02*
X698Y113D01*
X742Y113D02*
X756Y113D01*
X784Y113D02*
X798Y113D01*
X842Y113D02*
X856Y113D01*
X884Y113D02*
X898Y113D01*
X942Y113D02*
X956Y113D01*
X484Y112D02*
X498Y112D01*
X542Y112D02*
X556Y112D01*
X584Y112D02*
X598Y112D01*
X642Y112D02*
X656Y112D01*
X684Y112D02*
X698Y112D01*
X742Y112D02*
X756Y112D01*
X784Y112D02*
X798Y112D01*
X842Y112D02*
X856Y112D01*
X884Y112D02*
X898Y112D01*
X942Y112D02*
X956Y112D01*
X484Y111D02*
X498Y111D01*
X543Y111D02*
X557Y111D01*
X584Y111D02*
X598Y111D01*
X643Y111D02*
X657Y111D01*
X684Y111D02*
X698Y111D01*
X742Y111D02*
X756Y111D01*
X784Y111D02*
X798Y111D01*
X842Y111D02*
X856Y111D01*
X884Y111D02*
X898Y111D01*
X942Y111D02*
X956Y111D01*
X484Y110D02*
X498Y110D01*
X543Y110D02*
X557Y110D01*
X584Y110D02*
X598Y110D01*
X643Y110D02*
X657Y110D01*
X684Y110D02*
X698Y110D01*
X743Y110D02*
X757Y110D01*
X784Y110D02*
X798Y110D01*
X843Y110D02*
X857Y110D01*
X884Y110D02*
X898Y110D01*
X942Y110D02*
X956Y110D01*
X484Y109D02*
X498Y109D01*
X543Y109D02*
X557Y109D01*
X584Y109D02*
X598Y109D01*
X643Y109D02*
X657Y109D01*
X684Y109D02*
X698Y109D01*
X743Y109D02*
X757Y109D01*
X784Y109D02*
X798Y109D01*
X842Y109D02*
X857Y109D01*
X884Y109D02*
X898Y109D01*
X942Y109D02*
X956Y109D01*
X484Y108D02*
X498Y108D01*
X542Y108D02*
X557Y108D01*
X584Y108D02*
X598Y108D01*
X642Y108D02*
X657Y108D01*
X684Y108D02*
X698Y108D01*
X742Y108D02*
X757Y108D01*
X784Y108D02*
X798Y108D01*
X842Y108D02*
X857Y108D01*
X884Y108D02*
X898Y108D01*
X942Y108D02*
X956Y108D01*
X484Y107D02*
X498Y107D01*
X542Y107D02*
X557Y107D01*
X584Y107D02*
X598Y107D01*
X642Y107D02*
X657Y107D01*
X684Y107D02*
X698Y107D01*
X742Y107D02*
X757Y107D01*
X784Y107D02*
X798Y107D01*
X842Y107D02*
X857Y107D01*
X884Y107D02*
X898Y107D01*
X942Y107D02*
X956Y107D01*
X484Y106D02*
X498Y106D01*
X542Y106D02*
X557Y106D01*
X584Y106D02*
X598Y106D01*
X642Y106D02*
X657Y106D01*
X684Y106D02*
X698Y106D01*
X742Y106D02*
X757Y106D01*
X784Y106D02*
X798Y106D01*
X842Y106D02*
X857Y106D01*
X884Y106D02*
X898Y106D01*
X942Y106D02*
X956Y106D01*
X484Y105D02*
X498Y105D01*
X542Y105D02*
X557Y105D01*
X584Y105D02*
X598Y105D01*
X642Y105D02*
X657Y105D01*
X684Y105D02*
X698Y105D01*
X742Y105D02*
X757Y105D01*
X784Y105D02*
X798Y105D01*
X842Y105D02*
X857Y105D01*
X884Y105D02*
X898Y105D01*
X942Y105D02*
X956Y105D01*
X484Y104D02*
X498Y104D01*
X542Y104D02*
X557Y104D01*
X584Y104D02*
X598Y104D01*
X642Y104D02*
X657Y104D01*
X684Y104D02*
X698Y104D01*
X742Y104D02*
X757Y104D01*
X784Y104D02*
X798Y104D01*
X842Y104D02*
X857Y104D01*
X884Y104D02*
X898Y104D01*
X942Y104D02*
X956Y104D01*
X484Y103D02*
X499Y103D01*
X541Y103D02*
X557Y103D01*
X584Y103D02*
X599Y103D01*
X641Y103D02*
X657Y103D01*
X684Y103D02*
X699Y103D01*
X741Y103D02*
X757Y103D01*
X784Y103D02*
X799Y103D01*
X841Y103D02*
X857Y103D01*
X884Y103D02*
X899Y103D01*
X941Y103D02*
X956Y103D01*
X484Y102D02*
X499Y102D01*
X541Y102D02*
X557Y102D01*
X584Y102D02*
X599Y102D01*
X641Y102D02*
X657Y102D01*
X684Y102D02*
X699Y102D01*
X741Y102D02*
X757Y102D01*
X784Y102D02*
X799Y102D01*
X841Y102D02*
X857Y102D01*
X884Y102D02*
X899Y102D01*
X941Y102D02*
X956Y102D01*
X484Y101D02*
X500Y101D01*
X541Y101D02*
X557Y101D01*
X584Y101D02*
X599Y101D01*
X641Y101D02*
X657Y101D01*
X684Y101D02*
X699Y101D01*
X741Y101D02*
X757Y101D01*
X784Y101D02*
X799Y101D01*
X841Y101D02*
X857Y101D01*
X884Y101D02*
X899Y101D01*
X941Y101D02*
X956Y101D01*
X484Y100D02*
X500Y100D01*
X540Y100D02*
X557Y100D01*
X584Y100D02*
X600Y100D01*
X640Y100D02*
X657Y100D01*
X684Y100D02*
X700Y100D01*
X740Y100D02*
X757Y100D01*
X784Y100D02*
X800Y100D01*
X840Y100D02*
X857Y100D01*
X884Y100D02*
X900Y100D01*
X940Y100D02*
X956Y100D01*
X484Y99D02*
X501Y99D01*
X540Y99D02*
X557Y99D01*
X584Y99D02*
X601Y99D01*
X640Y99D02*
X657Y99D01*
X684Y99D02*
X701Y99D01*
X740Y99D02*
X757Y99D01*
X784Y99D02*
X801Y99D01*
X840Y99D02*
X857Y99D01*
X884Y99D02*
X900Y99D01*
X940Y99D02*
X956Y99D01*
X484Y98D02*
X501Y98D01*
X539Y98D02*
X557Y98D01*
X584Y98D02*
X601Y98D01*
X639Y98D02*
X657Y98D01*
X684Y98D02*
X701Y98D01*
X739Y98D02*
X757Y98D01*
X784Y98D02*
X801Y98D01*
X839Y98D02*
X857Y98D01*
X884Y98D02*
X901Y98D01*
X939Y98D02*
X956Y98D01*
X484Y97D02*
X502Y97D01*
X538Y97D02*
X557Y97D01*
X584Y97D02*
X602Y97D01*
X638Y97D02*
X657Y97D01*
X684Y97D02*
X702Y97D01*
X738Y97D02*
X757Y97D01*
X784Y97D02*
X802Y97D01*
X838Y97D02*
X857Y97D01*
X884Y97D02*
X902Y97D01*
X938Y97D02*
X956Y97D01*
X484Y96D02*
X503Y96D01*
X538Y96D02*
X557Y96D01*
X584Y96D02*
X603Y96D01*
X638Y96D02*
X657Y96D01*
X684Y96D02*
X703Y96D01*
X737Y96D02*
X757Y96D01*
X784Y96D02*
X803Y96D01*
X837Y96D02*
X857Y96D01*
X884Y96D02*
X903Y96D01*
X937Y96D02*
X956Y96D01*
X484Y95D02*
X503Y95D01*
X537Y95D02*
X557Y95D01*
X584Y95D02*
X603Y95D01*
X637Y95D02*
X657Y95D01*
X684Y95D02*
X703Y95D01*
X737Y95D02*
X757Y95D01*
X784Y95D02*
X803Y95D01*
X837Y95D02*
X857Y95D01*
X884Y95D02*
X903Y95D01*
X937Y95D02*
X956Y95D01*
X484Y94D02*
X504Y94D01*
X536Y94D02*
X557Y94D01*
X584Y94D02*
X604Y94D01*
X636Y94D02*
X657Y94D01*
X684Y94D02*
X704Y94D01*
X736Y94D02*
X757Y94D01*
X784Y94D02*
X804Y94D01*
X836Y94D02*
X857Y94D01*
X884Y94D02*
X904Y94D01*
X936Y94D02*
X956Y94D01*
X484Y93D02*
X506Y93D01*
X535Y93D02*
X557Y93D01*
X584Y93D02*
X606Y93D01*
X635Y93D02*
X657Y93D01*
X684Y93D02*
X706Y93D01*
X734Y93D02*
X757Y93D01*
X784Y93D02*
X806Y93D01*
X834Y93D02*
X857Y93D01*
X884Y93D02*
X906Y93D01*
X934Y93D02*
X956Y93D01*
X484Y92D02*
X507Y92D01*
X533Y92D02*
X557Y92D01*
X584Y92D02*
X607Y92D01*
X633Y92D02*
X657Y92D01*
X684Y92D02*
X707Y92D01*
X733Y92D02*
X757Y92D01*
X784Y92D02*
X807Y92D01*
X833Y92D02*
X857Y92D01*
X884Y92D02*
X907Y92D01*
X933Y92D02*
X956Y92D01*
X484Y91D02*
X508Y91D01*
X532Y91D02*
X557Y91D01*
X584Y91D02*
X608Y91D01*
X632Y91D02*
X657Y91D01*
X684Y91D02*
X708Y91D01*
X732Y91D02*
X757Y91D01*
X784Y91D02*
X808Y91D01*
X832Y91D02*
X857Y91D01*
X884Y91D02*
X908Y91D01*
X932Y91D02*
X956Y91D01*
X484Y90D02*
X510Y90D01*
X530Y90D02*
X557Y90D01*
X584Y90D02*
X610Y90D01*
X630Y90D02*
X657Y90D01*
X684Y90D02*
X710Y90D01*
X730Y90D02*
X757Y90D01*
X784Y90D02*
X810Y90D01*
X830Y90D02*
X857Y90D01*
X884Y90D02*
X910Y90D01*
X930Y90D02*
X956Y90D01*
X484Y89D02*
X513Y89D01*
X527Y89D02*
X557Y89D01*
X584Y89D02*
X613Y89D01*
X627Y89D02*
X657Y89D01*
X684Y89D02*
X713Y89D01*
X727Y89D02*
X757Y89D01*
X784Y89D02*
X813Y89D01*
X827Y89D02*
X857Y89D01*
X884Y89D02*
X913Y89D01*
X927Y89D02*
X956Y89D01*
X484Y88D02*
X517Y88D01*
X523Y88D02*
X557Y88D01*
X584Y88D02*
X617Y88D01*
X623Y88D02*
X657Y88D01*
X684Y88D02*
X717Y88D01*
X723Y88D02*
X757Y88D01*
X784Y88D02*
X817Y88D01*
X823Y88D02*
X857Y88D01*
X884Y88D02*
X917Y88D01*
X923Y88D02*
X956Y88D01*
X484Y87D02*
X557Y87D01*
X584Y87D02*
X657Y87D01*
X684Y87D02*
X757Y87D01*
X784Y87D02*
X857Y87D01*
X884Y87D02*
X956Y87D01*
X484Y86D02*
X557Y86D01*
X584Y86D02*
X657Y86D01*
X684Y86D02*
X757Y86D01*
X784Y86D02*
X857Y86D01*
X884Y86D02*
X956Y86D01*
X484Y85D02*
X557Y85D01*
X584Y85D02*
X657Y85D01*
X684Y85D02*
X757Y85D01*
X784Y85D02*
X857Y85D01*
X884Y85D02*
X956Y85D01*
X484Y84D02*
X557Y84D01*
X584Y84D02*
X657Y84D01*
X684Y84D02*
X757Y84D01*
X784Y84D02*
X857Y84D01*
X884Y84D02*
X956Y84D01*
X484Y83D02*
X557Y83D01*
X584Y83D02*
X657Y83D01*
X684Y83D02*
X757Y83D01*
X784Y83D02*
X857Y83D01*
X884Y83D02*
X956Y83D01*
X484Y82D02*
X557Y82D01*
X584Y82D02*
X657Y82D01*
X684Y82D02*
X757Y82D01*
X784Y82D02*
X857Y82D01*
X884Y82D02*
X956Y82D01*
X484Y81D02*
X557Y81D01*
X584Y81D02*
X657Y81D01*
X684Y81D02*
X757Y81D01*
X784Y81D02*
X857Y81D01*
X884Y81D02*
X956Y81D01*
X484Y80D02*
X557Y80D01*
X584Y80D02*
X657Y80D01*
X684Y80D02*
X757Y80D01*
X784Y80D02*
X857Y80D01*
X884Y80D02*
X956Y80D01*
X484Y79D02*
X557Y79D01*
X584Y79D02*
X657Y79D01*
X684Y79D02*
X757Y79D01*
X784Y79D02*
X857Y79D01*
X884Y79D02*
X956Y79D01*
X484Y78D02*
X557Y78D01*
X584Y78D02*
X657Y78D01*
X684Y78D02*
X757Y78D01*
X784Y78D02*
X857Y78D01*
X884Y78D02*
X956Y78D01*
X484Y77D02*
X557Y77D01*
X584Y77D02*
X657Y77D01*
X684Y77D02*
X757Y77D01*
X784Y77D02*
X857Y77D01*
X884Y77D02*
X956Y77D01*
X484Y76D02*
X557Y76D01*
X584Y76D02*
X657Y76D01*
X684Y76D02*
X757Y76D01*
X784Y76D02*
X857Y76D01*
X884Y76D02*
X956Y76D01*
X484Y75D02*
X557Y75D01*
X584Y75D02*
X657Y75D01*
X684Y75D02*
X757Y75D01*
X784Y75D02*
X857Y75D01*
X884Y75D02*
X956Y75D01*
X484Y74D02*
X557Y74D01*
X584Y74D02*
X657Y74D01*
X684Y74D02*
X757Y74D01*
X784Y74D02*
X857Y74D01*
X884Y74D02*
X956Y74D01*
X484Y73D02*
X557Y73D01*
X584Y73D02*
X657Y73D01*
X684Y73D02*
X757Y73D01*
X784Y73D02*
X857Y73D01*
X884Y73D02*
X956Y73D01*
X484Y72D02*
X557Y72D01*
X584Y72D02*
X657Y72D01*
X684Y72D02*
X757Y72D01*
X784Y72D02*
X857Y72D01*
X884Y72D02*
X956Y72D01*
X484Y71D02*
X557Y71D01*
X584Y71D02*
X657Y71D01*
X684Y71D02*
X757Y71D01*
X784Y71D02*
X857Y71D01*
X884Y71D02*
X956Y71D01*
X484Y70D02*
X557Y70D01*
X584Y70D02*
X657Y70D01*
X684Y70D02*
X757Y70D01*
X784Y70D02*
X857Y70D01*
X884Y70D02*
X956Y70D01*
X484Y69D02*
X557Y69D01*
X584Y69D02*
X657Y69D01*
X684Y69D02*
X757Y69D01*
X784Y69D02*
X857Y69D01*
X884Y69D02*
X956Y69D01*
X484Y68D02*
X557Y68D01*
X584Y68D02*
X657Y68D01*
X684Y68D02*
X757Y68D01*
X784Y68D02*
X857Y68D01*
X884Y68D02*
X956Y68D01*
X484Y67D02*
X557Y67D01*
X584Y67D02*
X657Y67D01*
X684Y67D02*
X757Y67D01*
X784Y67D02*
X857Y67D01*
X884Y67D02*
X956Y67D01*
X484Y66D02*
X557Y66D01*
X584Y66D02*
X657Y66D01*
X684Y66D02*
X757Y66D01*
X784Y66D02*
X857Y66D01*
X884Y66D02*
X956Y66D01*
X484Y65D02*
X557Y65D01*
X584Y65D02*
X657Y65D01*
X684Y65D02*
X757Y65D01*
X784Y65D02*
X857Y65D01*
X884Y65D02*
X956Y65D01*
X484Y64D02*
X557Y64D01*
X584Y64D02*
X657Y64D01*
X684Y64D02*
X757Y64D01*
X784Y64D02*
X857Y64D01*
X884Y64D02*
X956Y64D01*
X484Y63D02*
X557Y63D01*
X584Y63D02*
X657Y63D01*
X684Y63D02*
X757Y63D01*
X784Y63D02*
X857Y63D01*
X884Y63D02*
X956Y63D01*
X484Y62D02*
X557Y62D01*
X584Y62D02*
X657Y62D01*
X684Y62D02*
X757Y62D01*
X784Y62D02*
X857Y62D01*
X884Y62D02*
X956Y62D01*
X484Y61D02*
X557Y61D01*
X584Y61D02*
X657Y61D01*
X684Y61D02*
X757Y61D01*
X784Y61D02*
X857Y61D01*
X884Y61D02*
X956Y61D01*
X484Y60D02*
X557Y60D01*
X584Y60D02*
X657Y60D01*
X684Y60D02*
X757Y60D01*
X784Y60D02*
X857Y60D01*
X884Y60D02*
X956Y60D01*
X484Y59D02*
X557Y59D01*
X584Y59D02*
X657Y59D01*
X684Y59D02*
X757Y59D01*
X784Y59D02*
X857Y59D01*
X884Y59D02*
X956Y59D01*
X484Y58D02*
X557Y58D01*
X584Y58D02*
X657Y58D01*
X684Y58D02*
X757Y58D01*
X784Y58D02*
X857Y58D01*
X884Y58D02*
X956Y58D01*
X484Y57D02*
X557Y57D01*
X584Y57D02*
X657Y57D01*
X684Y57D02*
X757Y57D01*
X784Y57D02*
X857Y57D01*
X884Y57D02*
X956Y57D01*
X484Y56D02*
X557Y56D01*
X584Y56D02*
X657Y56D01*
X684Y56D02*
X757Y56D01*
X784Y56D02*
X857Y56D01*
X884Y56D02*
X956Y56D01*
X484Y55D02*
X557Y55D01*
X584Y55D02*
X657Y55D01*
X684Y55D02*
X757Y55D01*
X784Y55D02*
X857Y55D01*
X884Y55D02*
X956Y55D01*
X484Y54D02*
X557Y54D01*
X584Y54D02*
X657Y54D01*
X684Y54D02*
X757Y54D01*
X784Y54D02*
X857Y54D01*
X884Y54D02*
X956Y54D01*
X484Y53D02*
X557Y53D01*
X584Y53D02*
X657Y53D01*
X684Y53D02*
X757Y53D01*
X784Y53D02*
X857Y53D01*
X884Y53D02*
X956Y53D01*
X484Y52D02*
X557Y52D01*
X584Y52D02*
X657Y52D01*
X684Y52D02*
X757Y52D01*
X784Y52D02*
X857Y52D01*
X884Y52D02*
X956Y52D01*
X484Y51D02*
X557Y51D01*
X584Y51D02*
X657Y51D01*
X684Y51D02*
X757Y51D01*
X784Y51D02*
X857Y51D01*
X884Y51D02*
X956Y51D01*
X484Y50D02*
X557Y50D01*
X584Y50D02*
X657Y50D01*
X684Y50D02*
X757Y50D01*
X784Y50D02*
X857Y50D01*
X884Y50D02*
X956Y50D01*
X484Y49D02*
X557Y49D01*
X584Y49D02*
X657Y49D01*
X684Y49D02*
X757Y49D01*
X784Y49D02*
X857Y49D01*
X884Y49D02*
X956Y49D01*
X484Y48D02*
X557Y48D01*
X584Y48D02*
X657Y48D01*
X684Y48D02*
X757Y48D01*
X784Y48D02*
X857Y48D01*
X884Y48D02*
X956Y48D01*
X484Y47D02*
X557Y47D01*
X584Y47D02*
X657Y47D01*
X684Y47D02*
X757Y47D01*
X784Y47D02*
X857Y47D01*
X884Y47D02*
X956Y47D01*
X484Y46D02*
X557Y46D01*
X584Y46D02*
X657Y46D01*
X684Y46D02*
X757Y46D01*
X784Y46D02*
X857Y46D01*
X884Y46D02*
X956Y46D01*
X484Y45D02*
X557Y45D01*
X584Y45D02*
X657Y45D01*
X684Y45D02*
X757Y45D01*
X784Y45D02*
X857Y45D01*
X884Y45D02*
X956Y45D01*
X484Y44D02*
X557Y44D01*
X584Y44D02*
X657Y44D01*
X684Y44D02*
X757Y44D01*
X784Y44D02*
X857Y44D01*
X884Y44D02*
X956Y44D01*
X484Y43D02*
X557Y43D01*
X584Y43D02*
X657Y43D01*
X684Y43D02*
X757Y43D01*
X784Y43D02*
X857Y43D01*
X884Y43D02*
X956Y43D01*
X484Y42D02*
X557Y42D01*
X584Y42D02*
X657Y42D01*
X684Y42D02*
X757Y42D01*
X784Y42D02*
X857Y42D01*
X884Y42D02*
X956Y42D01*
X484Y41D02*
X557Y41D01*
X584Y41D02*
X657Y41D01*
X684Y41D02*
X757Y41D01*
X784Y41D02*
X857Y41D01*
X884Y41D02*
X956Y41D01*
X484Y40D02*
X557Y40D01*
X584Y40D02*
X657Y40D01*
X684Y40D02*
X757Y40D01*
X784Y40D02*
X857Y40D01*
X884Y40D02*
X956Y40D01*
X484Y39D02*
X557Y39D01*
X584Y39D02*
X657Y39D01*
X684Y39D02*
X757Y39D01*
X784Y39D02*
X857Y39D01*
X884Y39D02*
X956Y39D01*
X484Y38D02*
X557Y38D01*
X584Y38D02*
X657Y38D01*
X684Y38D02*
X757Y38D01*
X784Y38D02*
X857Y38D01*
X884Y38D02*
X956Y38D01*
X484Y37D02*
X557Y37D01*
X584Y37D02*
X657Y37D01*
X684Y37D02*
X757Y37D01*
X784Y37D02*
X857Y37D01*
X884Y37D02*
X956Y37D01*
X484Y36D02*
X557Y36D01*
X584Y36D02*
X657Y36D01*
X684Y36D02*
X757Y36D01*
X784Y36D02*
X857Y36D01*
X884Y36D02*
X956Y36D01*
X484Y35D02*
X557Y35D01*
X584Y35D02*
X657Y35D01*
X684Y35D02*
X756Y35D01*
X784Y35D02*
X856Y35D01*
X884Y35D02*
X956Y35D01*
X484Y34D02*
X556Y34D01*
X584Y34D02*
X656Y34D01*
X684Y34D02*
X756Y34D01*
X784Y34D02*
X856Y34D01*
X884Y34D02*
X956Y34D01*
X484Y33D02*
X556Y33D01*
X584Y33D02*
X656Y33D01*
X684Y33D02*
X756Y33D01*
X784Y33D02*
X856Y33D01*
X884Y33D02*
X956Y33D01*
X484Y32D02*
X556Y32D01*
X584Y32D02*
X656Y32D01*
X684Y32D02*
X756Y32D01*
X784Y32D02*
X856Y32D01*
X884Y32D02*
X956Y32D01*
X484Y31D02*
X556Y31D01*
X584Y31D02*
X656Y31D01*
X684Y31D02*
X756Y31D01*
X784Y31D02*
X856Y31D01*
X884Y31D02*
X956Y31D01*
X484Y30D02*
X556Y30D01*
X584Y30D02*
X656Y30D01*
X684Y30D02*
X756Y30D01*
X784Y30D02*
X856Y30D01*
X884Y30D02*
X956Y30D01*
X484Y29D02*
X556Y29D01*
X584Y29D02*
X656Y29D01*
X684Y29D02*
X756Y29D01*
X784Y29D02*
X856Y29D01*
X884Y29D02*
X956Y29D01*
X484Y28D02*
X556Y28D01*
X584Y28D02*
X656Y28D01*
X684Y28D02*
X756Y28D01*
X784Y28D02*
X856Y28D01*
X884Y28D02*
X956Y28D01*
X485Y27D02*
X555Y27D01*
X585Y27D02*
X655Y27D01*
X685Y27D02*
X755Y27D01*
X785Y27D02*
X855Y27D01*
X885Y27D02*
X955Y27D01*
X485Y26D02*
X555Y26D01*
X585Y26D02*
X655Y26D01*
X685Y26D02*
X755Y26D01*
X785Y26D02*
X855Y26D01*
X885Y26D02*
X955Y26D01*
X485Y25D02*
X555Y25D01*
X585Y25D02*
X655Y25D01*
X685Y25D02*
X755Y25D01*
X785Y25D02*
X855Y25D01*
X885Y25D02*
X955Y25D01*
X486Y24D02*
X555Y24D01*
X586Y24D02*
X655Y24D01*
X686Y24D02*
X755Y24D01*
X786Y24D02*
X855Y24D01*
X885Y24D02*
X954Y24D01*
X486Y23D02*
X554Y23D01*
X586Y23D02*
X654Y23D01*
X686Y23D02*
X754Y23D01*
X786Y23D02*
X854Y23D01*
X886Y23D02*
X954Y23D01*
X486Y22D02*
X554Y22D01*
X586Y22D02*
X654Y22D01*
X686Y22D02*
X754Y22D01*
X786Y22D02*
X854Y22D01*
X886Y22D02*
X954Y22D01*
X487Y21D02*
X553Y21D01*
X587Y21D02*
X653Y21D01*
X687Y21D02*
X753Y21D01*
X787Y21D02*
X853Y21D01*
X887Y21D02*
X953Y21D01*
X487Y20D02*
X553Y20D01*
X587Y20D02*
X653Y20D01*
X687Y20D02*
X753Y20D01*
X787Y20D02*
X853Y20D01*
X887Y20D02*
X953Y20D01*
X488Y19D02*
X552Y19D01*
X588Y19D02*
X652Y19D01*
X688Y19D02*
X752Y19D01*
X788Y19D02*
X852Y19D01*
X888Y19D02*
X952Y19D01*
X488Y18D02*
X552Y18D01*
X588Y18D02*
X652Y18D01*
X688Y18D02*
X752Y18D01*
X788Y18D02*
X852Y18D01*
X888Y18D02*
X952Y18D01*
X489Y17D02*
X551Y17D01*
X589Y17D02*
X651Y17D01*
X689Y17D02*
X751Y17D01*
X789Y17D02*
X851Y17D01*
X889Y17D02*
X951Y17D01*
X489Y16D02*
X551Y16D01*
X589Y16D02*
X651Y16D01*
X689Y16D02*
X751Y16D01*
X789Y16D02*
X851Y16D01*
X889Y16D02*
X951Y16D01*
X490Y15D02*
X550Y15D01*
X590Y15D02*
X650Y15D01*
X690Y15D02*
X750Y15D01*
X790Y15D02*
X850Y15D01*
X890Y15D02*
X950Y15D01*
X491Y14D02*
X549Y14D01*
X591Y14D02*
X649Y14D01*
X691Y14D02*
X749Y14D01*
X791Y14D02*
X849Y14D01*
X891Y14D02*
X949Y14D01*
X492Y13D02*
X549Y13D01*
X592Y13D02*
X649Y13D01*
X692Y13D02*
X749Y13D01*
X791Y13D02*
X849Y13D01*
X891Y13D02*
X949Y13D01*
X492Y12D02*
X548Y12D01*
X592Y12D02*
X648Y12D01*
X692Y12D02*
X748Y12D01*
X792Y12D02*
X848Y12D01*
X892Y12D02*
X948Y12D01*
X493Y11D02*
X547Y11D01*
X593Y11D02*
X647Y11D01*
X693Y11D02*
X747Y11D01*
X793Y11D02*
X847Y11D01*
X893Y11D02*
X947Y11D01*
X494Y10D02*
X546Y10D01*
X594Y10D02*
X646Y10D01*
X694Y10D02*
X746Y10D01*
X794Y10D02*
X846Y10D01*
X894Y10D02*
X946Y10D01*
X495Y9D02*
X545Y9D01*
X595Y9D02*
X645Y9D01*
X695Y9D02*
X745Y9D01*
X795Y9D02*
X845Y9D01*
X895Y9D02*
X945Y9D01*
X496Y8D02*
X544Y8D01*
X596Y8D02*
X644Y8D01*
X696Y8D02*
X744Y8D01*
X796Y8D02*
X844Y8D01*
X896Y8D02*
X944Y8D01*
X498Y7D02*
X543Y7D01*
X598Y7D02*
X643Y7D01*
X697Y7D02*
X743Y7D01*
X797Y7D02*
X843Y7D01*
X897Y7D02*
X943Y7D01*
X499Y6D02*
X541Y6D01*
X599Y6D02*
X641Y6D01*
X699Y6D02*
X741Y6D01*
X799Y6D02*
X841Y6D01*
X899Y6D02*
X941Y6D01*
X500Y5D02*
X540Y5D01*
X600Y5D02*
X640Y5D01*
X700Y5D02*
X740Y5D01*
X800Y5D02*
X840Y5D01*
X900Y5D02*
X940Y5D01*
X502Y4D02*
X538Y4D01*
X602Y4D02*
X638Y4D01*
X702Y4D02*
X738Y4D01*
X802Y4D02*
X838Y4D01*
X902Y4D02*
X938Y4D01*
X504Y3D02*
X536Y3D01*
X604Y3D02*
X636Y3D01*
X704Y3D02*
X736Y3D01*
X804Y3D02*
X836Y3D01*
X904Y3D02*
X936Y3D01*
X506Y2D02*
X534Y2D01*
X606Y2D02*
X634Y2D01*
X706Y2D02*
X734Y2D01*
X806Y2D02*
X834Y2D01*
X906Y2D02*
X934Y2D01*
X508Y1D02*
X532Y1D01*
X608Y1D02*
X632Y1D01*
X708Y1D02*
X732Y1D01*
X808Y1D02*
X832Y1D01*
X908Y1D02*
X932Y1D01*
X512Y0D02*
X528Y0D01*
X612Y0D02*
X628Y0D01*
X712Y0D02*
X728Y0D01*
X812Y0D02*
X828Y0D01*
X912Y0D02*
X928Y0D01*
D02*
G04 End of Copper0*
M02*