; NON-PLATED HOLES START AT T1
; THROUGH (PLATED) HOLES START AT T100
M48
INCH
T100C0.039370
T101C0.059055
T102C0.038000
T103C0.015748
T104C0.044000
%
T100
X009457Y019084
T101
X003957Y016334
X003957Y001334
T102
X008943Y013333
X008943Y011083
X018957Y015084
X011707Y012584
X008943Y016333
X007207Y002834
X018957Y003084
X016707Y010584
X012707Y012584
X010707Y008584
X008943Y003833
X016707Y009584
X010707Y009584
X010707Y002584
X008943Y008083
X016707Y004584
X018957Y009584
X008943Y014333
X010707Y004584
X018957Y017084
X018957Y012584
X008943Y002833
X017957Y007084
X016707Y006584
X015207Y000584
X018957Y010584
X011840Y005037
X008943Y015333
X010707Y011584
X018957Y018084
X017957Y006084
X014207Y000584
X001207Y002834
X012207Y000584
X010707Y012584
X018957Y004584
X016707Y008584
X010707Y007584
X018957Y002084
X018957Y016084
X017957Y004584
X010707Y003584
X018957Y001084
X016707Y007584
X011840Y006037
X016207Y000584
X018957Y011584
X007207Y011334
X018957Y006084
X008943Y009083
X013707Y012584
X013207Y000584
X011207Y000584
X018957Y007084
X008943Y005833
X001207Y011334
X008943Y010083
X010707Y001584
X016707Y011584
X016707Y005584
X010707Y010584
X016707Y012584
X008943Y004833
X018957Y013584
X018957Y008584
T103
X017695Y014322
X005457Y013334
X006460Y002074
X006457Y003834
X005453Y005824
X005457Y010584
X005457Y009084
X015957Y018584
X007457Y018334
X007948Y009074
X006471Y008089
X007193Y014326
X009957Y015584
X009957Y006084
X005474Y003827
X011957Y017834
X009707Y017084
X016207Y013834
X013707Y003584
T104
X008207Y001084
X009207Y001084
X005207Y001084
X007207Y001084
X006207Y001084
T00
M30
